HIERARCHY
ROOT root
{
	OFFSET 0.000000 0.000000 0.000000
	CHANNELS 6 Xposition Yposition Zposition Zrotation Yrotation Xrotation
	JOINT lhip
	{
		OFFSET 0.058581 -0.082280 -0.017664
		CHANNELS 3 Zrotation Yrotation Xrotation
		JOINT lknee
		{
			OFFSET 0.043451 -0.386469 0.008037
			CHANNELS 3 Zrotation Yrotation Xrotation
			JOINT lankle
			{
				OFFSET -0.014790 -0.426874 -0.037428
				CHANNELS 3 Zrotation Yrotation Xrotation
				JOINT ltoe
				{
					OFFSET 0.041054 -0.060286 0.122042
					CHANNELS 3 Zrotation Yrotation Xrotation
					End Site
					{
						OFFSET 0.000000 0.000000 0.000000
					}
				}
			}
		}
	}
	JOINT rhip
	{
		OFFSET -0.060310 -0.090513 -0.013543
		CHANNELS 3 Zrotation Yrotation Xrotation
		JOINT rknee
		{
			OFFSET -0.043257 -0.383688 -0.004843
			CHANNELS 3 Zrotation Yrotation Xrotation
			JOINT rankle
			{
				OFFSET 0.019056 -0.420046 -0.034562
				CHANNELS 3 Zrotation Yrotation Xrotation
				JOINT rtoe
				{
					OFFSET -0.034840 -0.062106 0.130323
					CHANNELS 3 Zrotation Yrotation Xrotation
					End Site
					{
						OFFSET 0.000000 0.000000 0.000000
					}
				}
			}
		}
	}
	JOINT lowerback
	{
		OFFSET 0.004439 0.124404 -0.038385
		CHANNELS 3 Zrotation Yrotation Xrotation
		JOINT upperback
		{
			OFFSET 0.004488 0.137956 0.026820
			CHANNELS 3 Zrotation Yrotation Xrotation
			JOINT chest
			{
				OFFSET -0.002265 0.056032 0.002855
				CHANNELS 3 Zrotation Yrotation Xrotation
				JOINT lowerneck
				{
					OFFSET -0.013390 0.211636 -0.033468
					CHANNELS 3 Zrotation Yrotation Xrotation
					JOINT upperneck
					{
						OFFSET 0.010113 0.088937 0.050410
						CHANNELS 3 Zrotation Yrotation Xrotation
						End Site
						{
							OFFSET 0.000000 0.000000 0.000000
						}
					}
				}
				JOINT lclavicle
				{
					OFFSET 0.071702 0.114000 -0.018898
					CHANNELS 3 Zrotation Yrotation Xrotation
					JOINT lshoulder
					{
						OFFSET 0.122921 0.045205 -0.019046
						CHANNELS 3 Zrotation Yrotation Xrotation
						JOINT lelbow
						{
							OFFSET 0.255332 -0.015649 -0.022946
							CHANNELS 3 Zrotation Yrotation Xrotation
							JOINT lwrist
							{
								OFFSET 0.265709 0.012698 -0.007375
								CHANNELS 3 Zrotation Yrotation Xrotation
								End Site
								{
									OFFSET 0.000000 0.000000 0.000000
								}
							}
						}
					}
				}
				JOINT rclavicle
				{
					OFFSET -0.082954 0.112472 -0.023707
					CHANNELS 3 Zrotation Yrotation Xrotation
					JOINT rshoulder
					{
						OFFSET -0.113228 0.046853 -0.008472
						CHANNELS 3 Zrotation Yrotation Xrotation
						JOINT relbow
						{
							OFFSET -0.260127 -0.014369 -0.031269
							CHANNELS 3 Zrotation Yrotation Xrotation
							JOINT rwrist
							{
								OFFSET -0.269108 0.006794 -0.006027
								CHANNELS 3 Zrotation Yrotation Xrotation
								End Site
								{
									OFFSET 0.000000 0.000000 0.000000
								}
							}
						}
					}
				}
			}
		}
	}
}
MOTION
Frames: 8
Frame Time: 0.033333
-0.062913 0.455815 1.601289 178.513454 9.049599 93.853200 5.347412 0.734201 -5.412986 -1.216782 0.859066 2.131553 -1.173518 7.523167 -9.814905 0.000000 -0.000000 0.000000 0.638496 -0.706969 -14.961173 0.755817 -9.273107 6.749695 11.446868 1.456825 11.773727 0.000000 -0.000000 0.000000 -10.525202 3.414846 3.721809 3.420985 0.212509 9.635697 -0.153534 0.757278 -8.338927 18.938691 20.141433 22.773081 3.261996 3.109807 -10.795367 -5.896578 10.594909 -0.939408 -58.024912 -10.108777 22.607520 -5.201116 -74.410826 26.409185 33.718093 -46.742475 -21.622410 12.502157 4.396434 3.605095 69.123284 17.883112 22.875037 -6.521780 54.813919 15.774757 -31.113384 37.298143 -8.886486 
-0.066923 0.459557 1.600658 178.223645 8.865214 93.430319 4.864943 1.109525 -4.497173 -1.175296 0.368031 1.651623 -1.206444 7.707958 -9.841116 0.000000 -0.000000 0.000000 0.217118 -0.482018 -15.059808 0.667402 -9.289311 7.933319 11.409296 0.856790 11.192725 0.000000 -0.000000 0.000000 -9.689632 2.865413 3.938141 3.650365 0.702552 8.886648 -0.417653 0.383446 -8.514715 19.023671 20.447671 21.941439 1.981417 3.313579 -9.555029 -7.287928 14.194579 -1.121376 -59.266981 -5.525374 23.435288 -6.251356 -68.469295 28.531869 34.171882 -47.217581 -22.081553 13.694192 0.857615 3.897985 68.534353 13.842582 24.154594 -2.943101 50.390493 21.337098 -33.236262 38.643204 -10.324497 
-0.070850 0.463007 1.599964 178.260562 8.690283 93.223897 4.478415 1.460587 -3.845194 -1.261320 -0.238429 1.219345 -1.255118 7.691035 -9.857805 0.000000 -0.000000 0.000000 -0.143555 -0.542270 -15.083754 0.515024 -8.853749 8.706759 11.566926 0.548256 10.677829 0.000000 -0.000000 0.000000 -8.781462 2.429511 3.813766 3.800946 0.935554 7.922519 -0.530428 0.034354 -8.194624 19.153539 20.237547 21.234236 0.990187 3.445196 -8.215255 -8.663393 17.029182 -1.018671 -60.103679 -1.272262 23.508911 -5.178630 -63.111961 28.349388 34.501121 -48.174274 -22.361144 14.469736 -2.007115 4.274740 67.740333 10.041752 24.307849 -1.582242 46.047226 24.236012 -34.185763 39.863107 -11.010825 
-0.074526 0.466101 1.599157 178.086532 8.552860 92.790275 4.068505 1.825621 -2.831517 -1.193218 -0.888060 0.537251 -1.396533 7.994663 -9.745313 0.000000 -0.000000 0.000000 -0.470041 -0.607465 -14.842716 0.571097 -8.523612 9.284280 11.615754 0.002472 10.327314 0.000000 -0.000000 0.000000 -8.083174 2.344463 3.178109 4.037587 1.324017 7.956995 -0.526710 -0.172875 -7.835961 19.164607 19.919324 20.461343 0.145489 3.395152 -7.214103 -9.341199 18.750568 -0.714260 -60.979871 2.481425 23.297684 -3.648303 -57.922782 28.334617 35.602627 -48.456687 -23.221989 15.029179 -4.373668 4.615344 66.671651 6.541149 23.816204 -1.475741 42.261701 26.019613 -34.849558 40.564543 -11.596696 
-0.078184 0.468677 1.598897 177.956633 8.280372 92.482389 3.516358 2.003113 -1.693793 -1.117482 -1.474399 -0.648216 -1.345420 8.400590 -9.415169 0.000000 -0.000000 0.000000 -0.792271 -0.905205 -14.962863 0.533849 -7.616420 10.152301 11.795461 -0.649552 9.953475 0.000000 -0.000000 0.000000 -7.433585 2.372585 3.277415 4.127368 1.702522 6.708687 -0.503223 -0.551962 -7.299485 18.725201 19.749284 19.629731 -0.574515 3.763854 -5.852665 -9.731555 20.611682 -0.306855 -61.133817 5.864590 23.038767 -3.157685 -53.094177 29.243194 36.991115 -48.836646 -24.439277 15.441931 -7.192456 4.742468 65.823081 3.372310 23.068757 -1.970169 38.578724 26.973017 -34.764781 40.933338 -11.209994 
-0.081531 0.470688 1.597455 178.032365 7.983297 92.355662 3.198138 1.783410 -0.768439 -1.308339 -1.593167 -1.878342 -0.931637 8.560027 -9.290706 0.000000 -0.000000 0.000000 -1.294252 -0.739169 -15.385680 0.384232 -7.999862 11.272992 11.543241 -0.561902 9.364762 0.000000 -0.000000 0.000000 -7.196152 2.019519 1.790058 4.376228 2.223521 8.707639 -0.918597 -0.006729 -6.919059 19.245396 20.221046 16.778238 -1.378015 2.572514 -4.980077 -9.255764 21.695885 -1.134572 -61.453369 8.330295 24.421032 -2.267516 -48.667254 29.773848 38.001002 -48.456659 -26.233728 17.096639 -9.589568 0.808807 64.186173 -2.081251 24.927715 -4.219854 35.615366 25.480090 -35.483921 40.750504 -12.384931 
-0.084936 0.472088 1.596698 177.826364 7.763404 92.032487 2.909601 2.292596 0.012706 -1.434297 -1.598174 -2.638161 -0.963242 8.045554 -9.352869 0.000000 -0.000000 0.000000 -1.557946 -0.698816 -15.719767 0.232138 -7.897208 12.445428 11.722529 -0.817877 8.834066 0.000000 -0.000000 0.000000 -6.603192 1.628697 2.097774 4.341942 2.767890 7.730885 -1.130653 -0.362243 -6.525678 19.927411 21.324177 15.399587 -2.625712 1.890497 -3.373880 -8.917221 24.175966 -0.620006 -61.087798 11.001989 23.993503 -2.747023 -45.943118 31.193104 37.846758 -49.292721 -26.242185 17.216776 -11.812901 0.916484 63.813764 -4.189300 24.767745 -5.353081 33.328640 25.000061 -35.955201 40.366147 -12.710925 
-0.088161 0.473796 1.595965 177.744861 7.402508 91.832505 2.568148 2.378356 0.833216 -1.715150 -2.235436 -3.594833 -0.706640 8.759306 -9.410836 0.000000 -0.000000 0.000000 -1.876250 -0.885511 -16.108249 0.216018 -7.438786 13.587007 11.298034 -1.455165 8.087782 0.000000 -0.000000 0.000000 -6.458774 1.374212 1.883540 4.429409 2.889357 7.413952 -1.274799 -0.310617 -5.805707 19.694335 21.204558 13.927837 -3.084895 2.290260 -3.616475 -9.046173 25.868701 -0.638974 -60.207821 13.930878 23.520405 -2.942664 -44.392782 30.848609 36.776492 -49.432806 -25.522838 18.049023 -13.818635 -1.005162 62.388672 -6.762795 24.655391 -5.496186 31.597807 24.576114 -33.814417 40.536891 -11.422815 
